<svg xmlns="http://www.w3.org/2000/svg" viewBox="0 0 64 64">
    <path d="M41.38,5.65c.89.32,1.77.68,2.62,1.09.36,3.36,1.85,6.56,4.28,8.99,2.45,2.45,5.59,3.94,8.99,4.28.41.85.77,1.73,1.08,2.61-2.13,2.63-3.33,5.95-3.33,9.38s1.21,6.75,3.33,9.38c-.32.89-.68,1.76-1.08,2.61-3.4.35-6.54,1.84-8.99,4.28-2.43,2.43-3.92,5.63-4.28,8.99-.86.41-1.73.77-2.62,1.09-2.63-2.13-5.95-3.33-9.38-3.33s-6.75,1.21-9.38,3.33c-.89-.32-1.77-.68-2.62-1.09-.36-3.36-1.85-6.56-4.28-8.99-2.45-2.45-5.59-3.94-8.99-4.28-.41-.85-.77-1.73-1.08-2.61,2.13-2.63,3.33-5.95,3.33-9.38s-1.21-6.75-3.33-9.38c.32-.89.68-1.76,1.08-2.61,3.4-.35,6.54-1.84,8.99-4.28,2.43-2.43,3.92-5.63,4.28-8.99.86-.41,1.73-.77,2.62-1.09,2.63,2.13,5.95,3.33,9.38,3.33s6.75-1.21,9.38-3.33M32,46.89c8.21,0,14.89-6.68,14.89-14.89s-6.68-14.89-14.89-14.89-14.89,6.68-14.89,14.89,6.68,14.89,14.89,14.89M39.93,0c-1.8,2.42-4.68,3.98-7.93,3.98S25.87,2.42,24.07,0c-3.24.8-6.3,2.08-9.09,3.77.43,2.98-.5,6.13-2.79,8.42-1.93,1.93-4.46,2.9-6.99,2.9-.48,0-.96-.03-1.43-.1-1.68,2.79-2.96,5.84-3.77,9.09,2.42,1.8,3.98,4.68,3.98,7.93s-1.57,6.13-3.98,7.93c.8,3.24,2.08,6.3,3.77,9.09.47-.07.95-.1,1.43-.1,2.53,0,5.06.96,6.99,2.9,2.3,2.3,3.23,5.44,2.79,8.42,2.79,1.68,5.84,2.96,9.09,3.77,1.8-2.42,4.68-3.98,7.93-3.98s6.13,1.57,7.93,3.98c3.24-.8,6.3-2.08,9.09-3.77-.43-2.98.5-6.13,2.79-8.42,1.93-1.93,4.46-2.9,6.99-2.9.48,0,.96.03,1.43.1,1.68-2.79,2.96-5.84,3.77-9.09-2.42-1.8-3.98-4.68-3.98-7.93s1.57-6.13,3.98-7.93c-.8-3.24-2.08-6.3-3.77-9.09-.47.07-.95.1-1.43.1-2.53,0-5.06-.96-6.99-2.9-2.3-2.3-3.23-5.44-2.79-8.42C46.23,2.08,43.18.8,39.93,0h0ZM32,41.89c-5.46,0-9.89-4.43-9.89-9.89s4.43-9.89,9.89-9.89,9.89,4.43,9.89,9.89-4.43,9.89-9.89,9.89h0Z"/>
</svg>